{"title":"Independence Day Resurgence 2016.hd.ts.500MB","uid":15180120,"size":523988342,"categoryP":"video","categoryS":"movies","magnet":"?xt=urn:btih:d20b5778d6cba8ed89027729d0b5913c09e80c66&amp;dn=Independence+Day+Resurgence+2016.hd.ts.500MB&amp;tr=udp%3A%2F%2Ftracker.leechers-paradise.org%3A6969&amp;tr=udp%3A%2F%2Fzer0day.ch%3A1337&amp;tr=udp%3A%2F%2Fopen.demonii.com%3A1337&amp;tr=udp%3A%2F%2Ftracker.coppersurfer.tk%3A6969&amp;tr=udp%3A%2F%2Fexodus.desync.com%3A6969","seeders":3,"leechers":3,"uploader":"PurePowerPunk","files":13,"time":1467450460,"description":"Added some color, softened picture and compressed. \r\n\r\n \nhttps://postimg.org/image/ho279sqkn/\r\n\r\n^^^^^^^^^^Screens^^^^^^^^^\r\n\r\n\r\nCodec ID                  : mp42\r\nFile size                 : 497 MiB\r\nDuration                  : 1h 50mn\r\nOverall bit rate mode     : Variable\r\nOverall bit rate          : 628 Kbps\r\n\r\nVideo\r\n-----\r\nID                        : 1\r\nFormat                    : AVC\r\nFormat/Info               : Advanced Video Codec\r\nFormat profile            :   \r\nFormat settings, CABAC    : Yes\r\nFormat settings, ReFrames : 3 frames\r\nCodec ID                  : avc1\r\nCodec ID/Info             : Advanced Video Coding\r\nDuration                  : 1h 50mn\r\nSource duration           : 1h 50mn\r\nBit rate                  : 494 Kbps\r\nWidth                     : 720 pixels\r\nHeight                    : 384 pixels\r\nDisplay aspect ratio      : 1.85:1\r\nFrame rate mode           : Variable\r\nFrame rate                : 30.000 fps\r\nMinimum frame rate        : 30.000 fps\r\nMaximum frame rate        : 30.030 fps\r\nStandard                  : NTSC\r\nColor space               : YUV\r\nChroma subsampling        : 4:2:0\r\nBit depth                 : 8 bits\r\nScan type                 : Progressive\r\nBits/(Pixel*Frame)        : 0.060\r\nStream size               : 391 MiB (79%)\r\nSource stream size        : 391 MiB (79%)\r\nLanguage                  : English\r\nEncoded date              : UTC 2016-07-02 06:52:48\r\nTagged date               : UTC 2016-07-02 06:52:48\r\nmdhd_Duration             : 6639000\r\nColor primaries           : BT.601 NTSC\r\nTransfer characteristics  : BT.601\r\nMatrix coefficients       : BT.601\r\n\r\nAudio\r\n-----\r\nID                        : 2\r\nFormat                    : AAC\r\nFormat/Info               : Advanced Audio Codec\r\nFormat profile            : LC\r\nCodec ID                  : 40\r\nDuration                  : 1h 50mn\r\nSource duration           : 1h 50mn\r\nBit rate mode             : Variable\r\nBit rate                  : 125 Kbps\r\nMaximum bit rate          : 206 Kbps\r\nChannel count             : 2 channels\r\nChannel positions         : Front: L R\r\nSampling rate             : 48.0 KHz\r\nCompression mode          : Lossy\r\nStream size               : 99.2 MiB (20%)\r\nSource stream size        : 99.2 MiB (20%)\r\nLanguage                  : English\r\nEncoded date              : UTC 2016-07-02 06:52:48\r\nTagged date               : UTC 2016-07-02 06:52:48\r\nmdhd_Duration             : 6639019","torrent":{"xt":"urn:btih:d20b5778d6cba8ed89027729d0b5913c09e80c66","amp;dn":"Independence+Day+Resurgence+2016.hd.ts.500MB","amp;tr":["udp%3A%2F%2Ftracker.leechers-paradise.org%3A6969","udp%3A%2F%2Fzer0day.ch%3A1337","udp%3A%2F%2Fopen.demonii.com%3A1337","udp%3A%2F%2Ftracker.coppersurfer.tk%3A6969","udp%3A%2F%2Fexodus.desync.com%3A6969"],"infoHash":"d20b5778d6cba8ed89027729d0b5913c09e80c66","infoHashBuffer":{"type":"Buffer","data":[210,11,87,120,214,203,168,237,137,2,119,41,208,181,145,60,9,232,12,102]},"announce":[],"urlList":[]}}